<svg xmlns="http://www.w3.org/2000/svg" xmlns:xlink="http://www.w3.org/1999/xlink" width="500" zoomAndPan="magnify" viewBox="0 0 375 374.999991" height="500" preserveAspectRatio="xMidYMid meet" version="1.0"><defs><g/><clipPath id="26d2682d01"><path d="M 301.339844 236.238281 L 331.085938 236.238281 L 331.085938 265.984375 L 301.339844 265.984375 Z M 301.339844 236.238281 " clip-rule="nonzero"/></clipPath><clipPath id="eb9cfca9d9"><path d="M 316.214844 236.238281 C 308 236.238281 301.339844 242.898438 301.339844 251.113281 C 301.339844 259.324219 308 265.984375 316.214844 265.984375 C 324.425781 265.984375 331.085938 259.324219 331.085938 251.113281 C 331.085938 242.898438 324.425781 236.238281 316.214844 236.238281 Z M 316.214844 236.238281 " clip-rule="nonzero"/></clipPath></defs><rect x="-37.5" width="450" fill="#ffffff" y="-37.499999" height="449.999989" fill-opacity="1"/><rect x="-37.5" width="450" fill="#ffffff" y="-37.499999" height="449.999989" fill-opacity="1"/><rect x="-37.5" width="450" fill="#5ce1e6" y="-37.499999" height="449.999989" fill-opacity="1"/><g fill="#ffffff" fill-opacity="1"><g transform="translate(52.649415, 266.624982)"><g><path d="M 95.59375 0 L 74.40625 0 C 72.132812 0 70.597656 -1 69.796875 -3 L 44.59375 -62.40625 L 37.203125 -48.203125 L 37.203125 -4 C 37.203125 -1.332031 35.867188 0 33.203125 0 L 14 0 C 11.332031 0 10 -1.332031 10 -4 L 10 -156 C 10 -158.664062 11.332031 -160 14 -160 L 33.203125 -160 C 35.867188 -160 37.203125 -158.664062 37.203125 -156 L 37.203125 -94 L 68 -157 C 69.0625 -159 70.59375 -160 72.59375 -160 L 93.59375 -160 C 95.0625 -160 96.0625 -159.566406 96.59375 -158.703125 C 97.132812 -157.835938 97.070312 -156.671875 96.40625 -155.203125 L 62.40625 -85.40625 L 98.59375 -4.59375 C 99.257812 -3.257812 99.328125 -2.160156 98.796875 -1.296875 C 98.265625 -0.429688 97.195312 0 95.59375 0 Z M 95.59375 0 "/></g></g></g><g fill="#ffffff" fill-opacity="1"><g transform="translate(159.846536, 266.624982)"><g><path d="M 93.59375 -160 L 120 -160 C 122.664062 -160 124 -158.664062 124 -156 L 124 -4 C 124 -1.332031 122.664062 0 120 0 L 101.40625 0 C 98.738281 0 97.40625 -1.332031 97.40625 -4 L 97.40625 -94 L 96 -94 L 76.203125 -3.59375 C 75.671875 -1.195312 74.203125 0 71.796875 0 L 62 0 C 59.726562 0 58.257812 -1.195312 57.59375 -3.59375 L 37.796875 -94 L 36.40625 -94 L 36.40625 -4 C 36.40625 -1.332031 35.070312 0 32.40625 0 L 14 0 C 11.332031 0 10 -1.332031 10 -4 L 10 -156 C 10 -158.664062 11.332031 -160 14 -160 L 40.40625 -160 C 42.800781 -160 44.265625 -158.800781 44.796875 -156.40625 L 67 -56.796875 L 89.203125 -156.40625 C 89.867188 -158.800781 91.332031 -160 93.59375 -160 Z M 93.59375 -160 "/></g></g></g><g clip-path="url(#26d2682d01)"><g clip-path="url(#eb9cfca9d9)"><path fill="#ffffff" d="M 301.339844 236.238281 L 331.085938 236.238281 L 331.085938 265.984375 L 301.339844 265.984375 Z M 301.339844 236.238281 " fill-opacity="1" fill-rule="nonzero"/></g></g></svg>